PathFileType	3	(X/Y/Z)	D:\Vicon Database\Healthy Subjects\S0040\Jan. 30, 2020\Force Plate Walk 6.trc
DataRate	CameraRate	NumFrames	NumMarkers	Units	OrigDataRate	OrigDataStartFrame	OrigNumFrames
100.0	100.0	4	53	mm	100.0	441	350	
Frame#	Time	sternum_cluster1			sternum_cluster2			sternum_cluster3			left_asis			right_asis			left_psis			right_psis			sacrum_cluster1			sacrum_cluster2			sacrum_cluster3			left_lat_femoral_epicondyle			left_anterior_thigh15			left_anterior_thigh25			left_anterior_thigh50			left_lateral_thigh25			left_lateral_thigh50			left_thigh_cluster1			left_thigh_cluster2			left_thigh_cluster3			left_fibular_head			left_tibial_tuberosity			left_anterior_shank30			left_lateral_malleolus			left_shank_cluster1			left_shank_cluster2			left_shank_cluster3			left_heel			left_metatarsal2			left_foot_cluster1			left_foot_cluster2			left_foot_cluster3			right_lat_femoral_epicondyle			right_anterior_thigh15			right_anterior_thigh25			right_anterior_thigh50			right_lateral_thigh25			right_lateral_thigh50			right_thigh_cluster1			right_thigh_cluster2			right_thigh_cluster3			right_fibular_head			right_tibial_tuberosity			right_lateral_distal_shank			right_anterior_shank30			right_lateral_malleolus			right_shank_cluster1			right_shank_cluster2			right_shank_cluster3			right_heel			right_metatarsal2			right_foot_cluster1			right_foot_cluster2			right_foot_cluster3			
		X1	Y1	Z1	X2	Y2	Z2	X3	Y3	Z3	X4	Y4	Z4	X5	Y5	Z5	X6	Y6	Z6	X7	Y7	Z7	X8	Y8	Z8	X9	Y9	Z9	X10	Y10	Z10	X11	Y11	Z11	X12	Y12	Z12	X13	Y13	Z13	X14	Y14	Z14	X15	Y15	Z15	X16	Y16	Z16	X17	Y17	Z17	X18	Y18	Z18	X19	Y19	Z19	X20	Y20	Z20	X21	Y21	Z21	X22	Y22	Z22	X23	Y23	Z23	X24	Y24	Z24	X25	Y25	Z25	X26	Y26	Z26	X27	Y27	Z27	X28	Y28	Z28	X29	Y29	Z29	X30	Y30	Z30	X31	Y31	Z31	X32	Y32	Z32	X33	Y33	Z33	X34	Y34	Z34	X35	Y35	Z35	X36	Y36	Z36	X37	Y37	Z37	X38	Y38	Z38	X39	Y39	Z39	X40	Y40	Z40	X41	Y41	Z41	X42	Y42	Z42	X43	Y43	Z43	X44	Y44	Z44	X45	Y45	Z45	X46	Y46	Z46	X47	Y47	Z47	X48	Y48	Z48	X49	Y49	Z49	X50	Y50	Z50	X51	Y51	Z51	X52	Y52	Z52	X53	Y53	Z53	
441	4.4	1321.9263	1448.7218	-147.02235	1308.8464	1421.1823	-139.56725	1313.3445	1423.9562	-177.3595	1333.1482	1065.9615	-26.337481	1341.0001	1079.998	-273.37201	1499.951	1087.9604	-74.440804	1507.3032	1089.7009	-191.65741	1512.8364	1145.9873	-138.13107	1519.5228	1120.5875	-149.92741	1520.5763	1115.5402	-110.71303	1489.4819	550.2395	-15.065387	1380.0126	610.43951	-65.571465	1341.8699	689.33276	-47.152084	1314.3009	827.25763	-22.32291	1456.8871	699.65643	9.9294682	1417.6205	841.35352	40.734982	1431.6443	797.08075	44.970142	1439.7841	768.82526	40.572441	1401.7285	771.3515	44.267124	1501.7527	469.33322	-11.121301	1451.1346	451.41422	-66.987473	1526.0732	210.14783	-84.833611	1601.1335	108.45049	-58.626492	1463.6006	398.65939	-97.416237	1464.6927	370.76328	-89.876404	1480.7662	375.16254	-124.95419	1680.9407	75.546631	-89.885208	1460.5463	65.558769	-96.709862	1518.9368	117.70329	-90.699966	1495.496	100.91296	-80.933464	1492.8224	104.6036	-119.2831	1223.986	561.44336	-299.88943	1168.345	670.81793	-251.90019	1189.6433	750.54669	-244.41806	1247.5487	865.67889	-243.20442	1278.9749	710.03326	-325.59836	1340.5912	846.84241	-345.8732	1325.8438	794.9649	-352.38858	1304.6147	774.98456	-349.99988	1339.5691	758.90173	-342.26498	1222.0327	494.43649	-303.74445	1160.668	494.16727	-265.51694	1197.5925	225.15144	-292.24899	1149.7472	245.78601	-251.20517	1177.5398	116.13283	-278.11926	1157.3571	428.98972	-210.27956	1159.2552	399.91385	-202.97591	1138.8151	400.94934	-234.11885	1239.1066	66.582237	-234.58464	1028.6736	120.56738	-252.92628	1091.5247	154.95386	-250.14767	1064.4857	146.37602	-242.45886	1067.9882	146.39967	-279.65228
442	4.41	1307.5087	1446.1318	-147.87018	1294.4875	1418.5765	-140.39317	1299.1414	1421.3696	-178.15234	1319.2544	1063.7836	-27.528767	1326.5924	1077.8401	-274.7001	1486.0498	1085.7633	-75.827789	1493.2708	1087.0031	-193.08992	1498.5243	1142.7844	-140.0519	1505.882	1117.9309	-151.25679	1506.2722	1112.5959	-112.36281	1483.772	550.97406	-15.957557	1373.2079	608.67877	-66.586411	1333.2321	687.05145	-48.183468	1302.9052	824.44867	-23.20956	1448.3612	700.13165	9.190424	1406.0154	840.36713	40.093464	1420.8649	796.27307	44.320377	1429.5002	768.33148	39.908768	1391.6614	770.25897	43.526279	1497.5071	469.92221	-11.799654	1447.2925	451.05225	-67.548569	1523.9967	210.82794	-85.100311	1600.0631	109.66364	-59.011707	1459.9648	398.69797	-97.923981	1460.761	370.98535	-89.814117	1477.0647	375.26114	-125.36707	1680.162	77.467567	-90.178131	1460.3029	65.162659	-97.242859	1517.8271	118.12564	-90.84697	1494.6205	100.91193	-80.954208	1491.6465	104.65449	-119.34727	1209.7554	558.48572	-299.4975	1156.6304	667.60889	-250.75632	1176.8752	746.81201	-244.22137	1233.4225	862.32782	-244.15248	1267.364	706.31787	-325.54971	1327.2611	843.40033	-346.2468	1313.3007	791.8551	-352.36612	1292.6602	771.45636	-349.74854	1327.4644	755.82623	-342.24118	1204.2979	492.2598	-303.56943	1143.7515	494.35928	-264.3873	1165.0747	224.51819	-294.00012	1118.8474	247.59018	-252.50363	1138.3693	116.74108	-281.59738	1137.8047	429.4494	-209.91527	1138.0228	400.36038	-202.80885	1117.3254	402.79401	-233.6188	1197.5693	62.852493	-238.726	990.4054	129.48387	-254.00812	1055.0691	160.35014	-251.60905	1027.8602	153.01227	-243.79149	1030.792	153.35674	-281.03665
443	4.42	1293.1117	1443.4315	-148.6915	1280.0776	1415.8093	-141.22057	1284.8284	1418.621	-179.0096	1305.3781	1061.4785	-28.727339	1312.61	1075.2749	-276.21097	1473.1143	1083.847	-76.850296	1479.194	1084.386	-194.47946	1485.157	1140.4895	-141.46333	1491.7852	1115.1853	-153.05052	1492.5819	1110.0955	-113.8448	1477.4274	551.52625	-16.674261	1365.7366	606.91815	-67.668411	1324.2509	684.63275	-49.251854	1291.1381	821.60291	-24.113214	1439.1801	700.00391	8.4293175	1394.0696	839.21252	39.454178	1409.5896	795.53467	43.540268	1418.853	767.72534	39.170975	1380.9275	768.64063	42.85788	1492.5983	470.51999	-12.420937	1442.6238	450.92532	-68.136635	1521.6917	211.4007	-85.329117	1598.9315	110.99654	-59.441261	1455.4977	398.67719	-98.064453	1457.1246	371.00507	-90.462341	1472.9825	375.33768	-125.74609	1679.3632	79.567551	-90.579468	1459.6475	64.800751	-97.282852	1516.8629	118.26198	-91.479088	1493.6448	100.89165	-80.984444	1490.4763	104.67219	-119.39841	1195.3041	555.68903	-299.3678	1145.1118	663.7088	-249.66469	1164.1969	742.53943	-244.15855	1219.2542	858.66602	-245.20062	1255.4214	702.22125	-326.63885	1314.113	839.73584	-346.64948	1301.4346	788.41748	-352.44196	1280.6177	768.09387	-350.75079	1315.5627	752.54901	-343.05225	1186.9139	490.09705	-303.63925	1127.6184	494.03879	-263.08209	1133.5792	224.6584	-296.26208	1089.4266	249.73853	-253.63197	1101.5776	118.56149	-284.7337	1119.14	429.70047	-209.42639	1117.4528	400.86957	-202.35942	1096.6584	404.40302	-232.88173	1157.0016	60.132946	-242.92305	954.40546	138.77534	-254.54158	1021.0048	165.78088	-252.88179	993.46301	160.05367	-244.53926	995.80762	160.61626	-281.83945
444	4.43	1278.6208	1440.6217	-149.54485	1265.675	1412.9944	-142.11179	1270.4437	1415.8038	-179.9399	1291.1466	1059.1448	-29.928663	1297.9047	1072.8733	-277.57938	1458.6163	1080.9794	-78.473801	1465.0333	1081.4614	-196.0332	1471.5226	1137.9701	-143.01485	1477.8962	1112.4141	-154.42917	1479.2714	1107.1962	-114.93404	1470.5167	551.88062	-17.214628	1357.7968	605.27179	-69.024673	1314.7009	682.33752	-50.41954	1278.0894	819.12067	-25.002251	1429.3375	699.56622	7.7160378	1381.7731	837.92035	38.741821	1398.0267	794.53705	42.749588	1407.7501	766.94269	38.415295	1369.8091	767.13995	42.189682	1487.1907	471.08453	-13.031334	1437.2805	450.56573	-68.814102	1519.0316	212.07936	-85.589394	1597.6873	112.61388	-59.838451	1451.1368	398.49603	-98.898148	1452.678	370.89969	-90.759018	1468.4337	375.30963	-126.14854	1678.3989	82.050491	-91.051781	1458.9392	64.510185	-97.300499	1515.2509	118.48051	-91.290436	1492.8558	100.65367	-81.527527	1489.2656	104.6334	-119.47466	1181.1057	552.74603	-299.36063	1133.4938	659.45587	-248.6274	1151.4583	738.021	-244.33293	1204.8003	854.98065	-246.4987	1244.1274	697.73706	-326.77704	1301.0602	836.08838	-347.09344	1288.3936	784.7478	-353.72147	1268.0447	764.08423	-351.81519	1303.6171	748.98938	-344.04727	1169.5161	488.12665	-303.83423	1110.4534	494.02872	-261.65411	1103.5825	225.64749	-298.43503	1061.5005	252.269	-254.53264	1066.0299	120.23375	-286.47083	1101.5	429.67169	-208.9476	1098.3281	401.00586	-202.20398	1076.741	406.04816	-232.05606	1119.8052	59.103954	-246.59567	920.8692	148.14433	-254.61609	988.61896	171.96964	-253.59705	961.10693	167.34506	-244.97896	962.93237	168.08568	-282.42117
